<?xml version="1.0" standalone="no"?><!DOCTYPE svg PUBLIC "-//W3C//DTD SVG 1.1//EN" "http://www.w3.org/Graphics/SVG/1.1/DTD/svg11.dtd"><svg t="1514189897281" class="icon" style="" viewBox="0 0 1024 1024" version="1.1" xmlns="http://www.w3.org/2000/svg" p-id="2321" xmlns:xlink="http://www.w3.org/1999/xlink" width="200" height="200"><defs><style type="text/css"></style></defs><path d="M512 0a2341.44 2341.44 0 0 0-512 62.848V512a484.352 484.352 0 0 0 71.936 199.04 630.336 630.336 0 0 0 153.6 169.728A892.672 892.672 0 0 0 512 1024a894.08 894.08 0 0 0 285.76-142.784 631.488 631.488 0 0 0 153.6-169.216A487.36 487.36 0 0 0 1024 512V62.848A2341.312 2341.312 0 0 0 512 0z m469.312 510.08a450.432 450.432 0 0 1-66.112 179.648 588.8 588.8 0 0 1-143.36 157.76A842.944 842.944 0 0 1 512 979.2a841.856 841.856 0 0 1-260.288-132.288 587.904 587.904 0 0 1-143.296-158.208 446.336 446.336 0 0 1-65.728-178.56V96A2366.592 2366.592 0 0 1 512 42.688a2366.08 2366.08 0 0 1 469.312 53.44V510.08zM485.696 576V435.2h180.992v14.272h38.4V204.288H446.592V561.28a50.048 50.048 0 0 1-14.912 36.544l29.12 40.384a263.104 263.104 0 0 1 28.8-18.816q50.048-25.28 99.2-44.672-2.048-20.416-2.56-42.496-59.392 26.944-100.544 43.776z m-124.928 25.6V372.032H259.968v39.808h61.184v181.184q-20.352 19.904-65.792 65.6l21.056 44.8a795.328 795.328 0 0 1 61.696-72.064 133.44 133.44 0 0 0 122.368 62.912q142.912 3.2 292.544 2.176 8.768-24.768 14.4-42.496-154.752 4.288-300.8 2.176A118.72 118.72 0 0 1 360.768 601.6z m259.648-98.368L543.296 454.4l-21.056 29.568q115.2 76.352 199.488 140.352l25.6-37.632q-36.928-25.408-92.48-61.376 47.296-20.416 97.152-41.408l-26.24-37.12q-53.76 30.656-105.344 56.448z m46.272-201.088H485.696v-61.312h180.992v61.312zM485.696 398.912v-61.312h180.992v61.312H485.696zM286.72 214.528Q313.6 251.584 355.072 320l36.48-26.88Q345.6 224.704 319.616 191.36z" fill="#555555" p-id="2322"></path></svg>